<svg width="80" height="25" viewBox="0 0 80 25" fill="none" xmlns="http://www.w3.org/2000/svg">
<path d="M15.4124 9.34623L13.571 4.00824C13.4351 3.61416 13.0355 3.40481 12.6809 3.54217L0.442865 8.24358C0.088269 8.37999 -0.0908288 8.80912 0.0459695 9.20319L1.98635 14.8311V11.8158C1.98635 10.4536 3.01953 9.34623 4.29032 9.34623H7.52398L11.3804 6.49678L13.6115 9.34623H15.4124V9.34623ZM17.3141 11.0798H4.29032C4.19908 11.0796 4.10873 11.0987 4.02457 11.1358C3.94042 11.1729 3.86416 11.2273 3.80028 11.2959C3.73639 11.3645 3.68617 11.4458 3.65255 11.5351C3.61894 11.6244 3.60261 11.7198 3.60453 11.8158V20.7393C3.60543 21.1599 3.91322 21.5 4.29032 21.5H17.3141C17.6921 21.5 17.9998 21.1599 17.9998 20.7393V11.8158C18.0018 11.7198 17.9854 11.6244 17.9518 11.5351C17.9182 11.4458 17.868 11.3645 17.8041 11.2959C17.7402 11.2273 17.664 11.1729 17.5798 11.1358C17.4956 11.0987 17.4053 11.0796 17.3141 11.0798V11.0798ZM16.1999 19.6054H5.4V17.7108L7.18558 13.9046L9.67675 17.1595L12.0149 14.6378L15.0191 13.4963L16.1999 16.7635V19.6054Z" fill="#0D9488"/>
<path d="M31.3884 21.2234C29.8448 21.2234 28.5246 20.9188 27.4278 20.3094C26.331 19.7001 25.4847 18.847 24.8889 17.7503C24.3067 16.6399 24.0155 15.3333 24.0155 13.8303C24.0155 12.3408 24.3067 11.0477 24.8889 9.95088C25.4847 8.84055 26.331 7.98072 27.4278 7.3714C28.5246 6.76207 29.8448 6.45741 31.3884 6.45741C32.0654 6.45741 32.7492 6.54542 33.4398 6.72145C34.1439 6.89748 34.7532 7.13444 35.2678 7.43233C35.6875 7.67606 35.9448 7.98072 36.0396 8.34632C36.1344 8.71192 36.1005 9.0572 35.938 9.38218C35.7891 9.70715 35.5521 9.93734 35.2272 10.0727C34.9022 10.2082 34.5366 10.1608 34.1304 9.93057C33.7241 9.68684 33.2976 9.51081 32.8508 9.40249C32.4039 9.29416 31.9503 9.24 31.4899 9.24C30.1223 9.24 29.0865 9.63945 28.3824 10.4383C27.6918 11.2237 27.3465 12.3543 27.3465 13.8303C27.3465 15.3062 27.6918 16.4436 28.3824 17.2425C29.0865 18.0414 30.1223 18.4408 31.4899 18.4408C31.9232 18.4408 32.3633 18.3867 32.8102 18.2783C33.2705 18.17 33.7106 18.0008 34.1304 17.7706C34.5637 17.5404 34.9428 17.493 35.2678 17.6284C35.5927 17.7503 35.8297 17.9669 35.9787 18.2783C36.1411 18.5762 36.1818 18.908 36.1005 19.2736C36.0193 19.6256 35.7891 19.9168 35.4099 20.1469C34.8954 20.4855 34.2725 20.7495 33.5413 20.9391C32.8237 21.1286 32.106 21.2234 31.3884 21.2234ZM39.606 21.1828C38.577 21.1828 38.0624 20.6615 38.0624 19.6189V8.06197C38.0624 7.01934 38.577 6.49803 39.606 6.49803C40.6216 6.49803 41.1294 7.01934 41.1294 8.06197V12.3882C41.4814 11.8736 41.935 11.4877 42.4902 11.2305C43.0454 10.9597 43.6615 10.8242 44.3385 10.8242C46.681 10.8242 47.8523 12.2189 47.8523 15.0083V19.6189C47.8523 20.6615 47.3377 21.1828 46.3086 21.1828C45.8212 21.1828 45.442 21.0474 45.1712 20.7766C44.914 20.5058 44.7853 20.1199 44.7853 19.6189V15.1505C44.7853 14.4599 44.6567 13.9657 44.3994 13.6678C44.1421 13.3563 43.763 13.2006 43.262 13.2006C42.6121 13.2006 42.0907 13.4037 41.6981 13.8099C41.3189 14.2162 41.1294 14.7578 41.1294 15.4348V19.6189C41.1294 20.6615 40.6216 21.1828 39.606 21.1828ZM54.9352 21.2234C53.8655 21.2234 52.9312 21.0135 52.1323 20.5938C51.347 20.1605 50.7376 19.5579 50.3043 18.7861C49.871 18.0008 49.6544 17.0732 49.6544 16.0035C49.6544 14.9474 49.871 14.0334 50.3043 13.2616C50.7376 12.4762 51.347 11.8736 52.1323 11.4539C52.9312 11.0341 53.8655 10.8242 54.9352 10.8242C56.0049 10.8242 56.9324 11.0341 57.7178 11.4539C58.5167 11.8736 59.1328 12.4762 59.5661 13.2616C60.0129 14.0334 60.2363 14.9474 60.2363 16.0035C60.2363 17.0732 60.0129 18.0008 59.5661 18.7861C59.1328 19.5579 58.5167 20.1605 57.7178 20.5938C56.9324 21.0135 56.0049 21.2234 54.9352 21.2234ZM54.9352 18.9283C55.5852 18.9283 56.1132 18.6913 56.5195 18.2174C56.9392 17.7435 57.1491 17.0055 57.1491 16.0035C57.1491 15.0151 56.9392 14.2906 56.5195 13.8303C56.1132 13.3563 55.5852 13.1194 54.9352 13.1194C54.2853 13.1194 53.7572 13.3563 53.351 13.8303C52.9447 14.2906 52.7416 15.0151 52.7416 16.0035C52.7416 17.0055 52.9447 17.7435 53.351 18.2174C53.7572 18.6913 54.2853 18.9283 54.9352 18.9283ZM68.2564 21.2234C67.5659 21.2234 66.943 21.0745 66.3878 20.7766C65.8327 20.4787 65.4129 20.0725 65.1286 19.5579V19.6189C65.1286 20.6615 64.6276 21.1828 63.6256 21.1828C62.61 21.1828 62.1023 20.6615 62.1023 19.6189V8.06197C62.1023 7.01934 62.6168 6.49803 63.6459 6.49803C64.6614 6.49803 65.1692 7.01934 65.1692 8.06197V12.3679C65.4671 11.894 65.8868 11.5216 66.4285 11.2508C66.9836 10.9664 67.593 10.8242 68.2564 10.8242C69.123 10.8242 69.8813 11.0341 70.5313 11.4539C71.1948 11.8736 71.7093 12.4694 72.0749 13.2412C72.4405 14.0131 72.6233 14.9338 72.6233 16.0035C72.6233 17.0732 72.4405 18.0008 72.0749 18.7861C71.7093 19.5579 71.1948 20.1605 70.5313 20.5938C69.8813 21.0135 69.123 21.2234 68.2564 21.2234ZM67.3425 18.9283C67.9924 18.9283 68.5205 18.6913 68.9267 18.2174C69.3329 17.7435 69.536 17.0055 69.536 16.0035C69.536 15.0151 69.3329 14.2906 68.9267 13.8303C68.5205 13.3563 67.9924 13.1194 67.3425 13.1194C66.679 13.1194 66.1441 13.3563 65.7379 13.8303C65.3317 14.2906 65.1286 15.0151 65.1286 16.0035C65.1286 17.0055 65.3317 17.7435 65.7379 18.2174C66.1441 18.6913 66.679 18.9283 67.3425 18.9283ZM76.0427 9.19938C75.474 9.19938 75.0339 9.07074 74.7225 8.81347C74.4246 8.54266 74.2756 8.16352 74.2756 7.67606C74.2756 7.17506 74.4246 6.79592 74.7225 6.53865C75.0339 6.26784 75.474 6.13243 76.0427 6.13243C77.2071 6.13243 77.7894 6.64698 77.7894 7.67606C77.7894 8.69161 77.2071 9.19938 76.0427 9.19938ZM76.0427 21.1625C75.5417 21.1625 75.1557 21.0203 74.8849 20.736C74.6277 20.4381 74.499 20.0251 74.499 19.497V12.5507C74.499 11.4268 75.0136 10.8649 76.0427 10.8649C76.5301 10.8649 76.9025 11.0138 77.1598 11.3117C77.4306 11.5961 77.566 12.009 77.566 12.5507V19.497C77.566 20.0251 77.4373 20.4381 77.1801 20.736C76.9228 21.0203 76.5437 21.1625 76.0427 21.1625Z" fill="#0D9488"/>
</svg>
